<svg width="46" height="24" viewBox="0 0 46 24" fill="none" xmlns="http://www.w3.org/2000/svg">
<rect opacity="0.6" width="46" height="24" rx="12" fill="#192A3E"/>
<path d="M14.3735 9.411V8.234H16.8595V16H15.5395V9.411H14.3735ZM18.0986 14.328V13.272L21.9596 8.168H23.3016V13.228H24.3906V14.328H23.3016V16H22.0366V14.328H18.0986ZM22.1246 9.664L19.3966 13.228H22.1246V9.664ZM29.635 10.324C29.503 9.45867 29.052 9.026 28.282 9.026C27.7246 9.026 27.3066 9.24967 27.028 9.697C26.7493 10.137 26.61 10.83 26.61 11.776L26.621 12.15C26.731 11.754 26.9693 11.4387 27.336 11.204C27.7026 10.9693 28.1353 10.852 28.634 10.852C29.3966 10.852 29.9943 11.0793 30.427 11.534C30.8596 11.9887 31.076 12.6303 31.076 13.459C31.076 13.9577 30.977 14.405 30.779 14.801C30.581 15.1897 30.284 15.5013 29.888 15.736C29.492 15.9633 29.0043 16.077 28.425 16.077C27.303 16.077 26.533 15.7287 26.115 15.032C25.697 14.3353 25.488 13.3783 25.488 12.161C25.488 10.7677 25.7116 9.72633 26.159 9.037C26.6063 8.34767 27.3396 8.003 28.359 8.003C29.1216 8.003 29.7046 8.21933 30.108 8.652C30.5186 9.08467 30.757 9.642 30.823 10.324H29.635ZM26.731 13.316C26.731 13.7927 26.8703 14.1923 27.149 14.515C27.4276 14.8303 27.8383 14.988 28.381 14.988C28.843 14.988 29.2096 14.8523 29.481 14.581C29.7596 14.3097 29.899 13.932 29.899 13.448C29.899 12.9273 29.7596 12.5277 29.481 12.249C29.2023 11.9703 28.8246 11.831 28.348 11.831C27.9153 11.831 27.5376 11.9593 27.215 12.216C26.8923 12.4727 26.731 12.8393 26.731 13.316Z" fill="white"/>
</svg>
